inDegrees=yes
name=IK-live
DataType=double
version=3
OpenSimVersion=4.1
endheader
time	pelvis_tilt	pelvis_list	pelvis_rotation	pelvis_tx	pelvis_ty	pelvis_tz	hip_flexion_r	hip_adduction_r	hip_rotation_r	knee_angle_r	ankle_angle_r	subtalar_angle_r	mtp_angle_r	hip_flexion_l	hip_adduction_l	hip_rotation_l	knee_angle_l	ankle_angle_l	subtalar_angle_l	mtp_angle_l	lumbar_extension	lumbar_bending	lumbar_rotation	neck_flex	neck_latbend	neck_rot	arm_flex_r	arm_add_r	arm_rot_r	elbow_flex_r	pro_sup_r	wrist_flex_r	wrist_dev_r	arm_flex_l	arm_add_l	arm_rot_l	elbow_flex_l	pro_sup_l	wrist_flex_l	wrist_dev_l
113.3117156	64.10145071565199	38.61413344632299	-234.3236705392217	0.2341366603171506	0.04326292228651554	-1.326684523481465	31.21119361606867	15.8112239167061	-43.58701873839682	5.899560354604904	2.451982624139334	1.987972377786656	0	17.37040273118713	-63.63998865307835	-5.697230687018585	9.793848132074926	-0.4439473045988533	4.250290820099795	0	-21.37711699760957	1.659277491615732	3.206407148933037	0	0	0	67.31631763897518	-14.98941540830149	-2.815362781662484	77.16831675211752	45.05727460902086	0	4.690007246245554	68.53663946194987	-15.10610272965197	-3.20114780594642	77.13133094296758	45.21370097049412	0	4.690007246245554
113.5629224	90.16762150161985	-1.911976101373446	-234.5250206782833	0.2341366603171506	0.04326292228651554	-1.326684523481465	67.24801729691748	-22.39668902388515	-89.38079746251842	5.899560354604904	2.451982624139334	1.987972377786656	0	71.20712240065798	-53.45412230557785	-3.300270620866827	9.793848132074926	-0.4439473045988533	4.250290820099795	0	-21.37711699760957	1.659277491615732	3.206407148933037	0	0	0	16.6860304267357	-15.11434043149992	19.45467324614295	68.3807455931353	42.88268669708268	0	6.686070020778388	20.74063170617685	-13.85323544430697	25.85997042525791	69.22025637098682	43.52384911849941	0	6.686070020778388
113.8256808	98.41566860993558	22.57714460482429	-236.9915897826666	0.2341366603171506	0.04326292228651554	-1.326684523481465	119.1627184184802	-29.70964371180754	-63.8857388135224	5.899560354604904	2.451982624139334	1.987972377786656	0	83.07146134685017	-54.04523106565841	22.9186519489477	9.793848132074926	-0.4439473045988533	4.250290820099795	0	-21.37711699760957	1.659277491615732	3.206407148933037	0	0	0	11.49997645667762	-15.1319580496287	21.67533917396768	78.26877297444993	44.83081423937306	0	7.481276012916092	15.73838271804924	-13.67661573072174	27.63648292314004	79.18203410836	44.17135519544802	0	7.481276012916092
114.0855739	-44.68774559924344	119.2912641055608	-93.77056062659085	0.2341366603171506	0.04326292228651554	-1.326684523481465	174.3298295590584	-46.59844918578275	-70.93644035815683	5.899560354604904	2.451982624139334	1.987972377786656	0	-69.0583089472905	-119.1426536558083	-102.114257478968	9.793848132074926	-0.4439473045988533	4.250290820099795	0	-21.37711699760957	1.659277491615732	3.206407148933037	0	0	0	45.28937513850732	-15.02660423818472	1.444055005672228	79.04769870140584	45.8506334874286	0	4.956003265422959	47.39448232736808	-14.73322680842573	1.621571751567951	79.10915956110232	45.56816633599417	0	4.956003265422959
114.3365057	-120.9727157174169	55.31591523449148	-5.988983242492274	0.2341366603171506	0.04326292228651554	-1.326684523481465	246.6788083816042	-61.3121672397404	16.8475805300668	5.899560354604904	2.451982624139334	1.987972377786656	0	124.2864559405518	-45.17187800304936	119.4676572263937	9.793848132074926	-0.4439473045988533	4.250290820099795	0	-21.37711699760957	1.659277491615732	3.206407148933037	0	0	0	67.48264710150669	-14.99298307191019	-2.044566746505211	76.45881809527593	44.6996576139065	0	4.967150505637544	68.3890519791952	-15.07037946910267	-2.569719355040617	76.46802622733213	44.85265082471567	0	4.967150505637544
114.6002276	-70.95440926329778	49.2492165531113	-47.43889753570427	0.2341366603171506	0.04326292228651554	-1.326684523481465	31.10679320768268	-44.14855662194045	-136.2779048620737	5.899560354604904	2.451982624139334	1.987972377786656	0	87.28085171731651	-53.7160884610851	86.17588645626671	9.793848132074926	-0.4439473045988533	4.250290820099795	0	-21.37711699760957	1.659277491615732	3.206407148933037	0	0	0	50.84935444889248	-15.00490901436825	-2.538351626819344	74.36550755450594	48.62399179255141	0	5.360573595702474	52.66464405178865	-14.9507858514329	-2.50947554929039	74.39317121398676	47.36613011285925	0	5.360573595702474
114.8600494	-6.164357650943649	58.8668210465248	-150.8821899289492	0.2341366603171506	0.04326292228651554	-1.326684523481465	32.99887702997894	-40.53301970095077	-121.1165465682602	5.899560354604904	2.451982624139334	1.987972377786656	0	-2.908805960953936	-51.14301550332348	-31.93266808486273	9.793848132074926	-0.4439473045988533	4.250290820099795	0	-21.37711699760957	1.659277491615732	3.206407148933037	0	0	0	85.13636375662594	-14.98816778422773	-1.655448346617943	74.92770239766273	44.99400320947988	0	5.009120289220808	85.24819331586609	-15.11866239537644	-2.075633025774584	74.89581631504302	45.00356457661831	0	5.009120289220808
115.1109254	-9.725839980356213	58.6129231056602	-160.3398077435979	0.2341366603171506	0.04326292228651554	-1.326684523481465	20.19066133047892	-49.64600588788362	-110.6851424622991	5.899560354604904	2.451982624139334	1.987972377786656	0	-19.72870417999663	-49.58668827641299	-54.34202046679722	9.793848132074926	-0.4439473045988533	4.250290820099795	0	-21.37711699760957	1.659277491615732	3.206407148933037	0	0	0	13.6285555195688	-15.12600116095856	21.7628822629012	69.91856733635068	41.5288395253193	0	6.278520005904427	17.86180088558956	-13.73629671415225	28.58239374833446	70.83956937622224	42.45734232643933	0	6.278520005904427
115.361752	49.07967647671185	34.94275116928972	-253.4599016540773	0.2341366603171506	0.04326292228651554	-1.326684523481465	64.34792808020967	-32.67862746653043	-41.26544932474722	5.899560354604904	2.451982624139334	1.987972377786656	0	-12.20236932151126	-36.43831638672059	-110.7995207469247	9.793848132074926	-0.4439473045988533	4.250290820099795	0	-21.37711699760957	1.659277491615732	3.206407148933037	0	0	0	19.28941988501574	-15.10318839352835	16.51784309683725	75.03875322185731	45.44794825729237	0	6.752433032287344	23.09698755271443	-13.9651112990422	21.86405911253246	75.88830328018315	45.07488008553791	0	6.752433032287344
115.6136485	54.75925930332096	18.20544659691252	-259.7945575958775	0.2341366603171506	0.04326292228651554	-1.326684523481465	78.42149478435535	-15.30856893890823	-54.3108441602616	5.899560354604904	2.451982624139334	1.987972377786656	0	2.15321961435978	-36.72934041546957	-119.3961763934097	9.793848132074926	-0.4439473045988533	4.250290820099795	0	-21.37711699760957	1.659277491615732	3.206407148933037	0	0	0	10.57683047657309	-15.13666863949336	23.18847720441267	68.51516978172199	42.07127728771532	0	6.813140084298931	14.92773430750609	-13.62935137955323	29.88635602676983	69.4021342478338	42.72658642804203	0	6.813140084298931
115.8644481	54.94517678261407	24.78823616653404	-257.7777815647423	0.2341366603171506	0.04326292228651554	-1.326684523481465	79.51840085974501	-5.766795145810771	-41.12364662248891	5.899560354604904	2.451982624139334	1.987972377786656	0	-4.517793809208341	-36.0229879186413	-123.0004037330375	9.793848132074926	-0.4439473045988533	4.250290820099795	0	-21.37711699760957	1.659277491615732	3.206407148933037	0	0	0	9.37379276893529	-15.14042364307529	23.52666640730331	68.58559243741652	42.62660055213067	0	6.783226173603685	13.75098762518896	-13.59171283533014	30.00005791432384	69.37523107486351	42.95644405908237	0	6.783226173603685
116.1253965	46.17036209635975	30.05130485321035	-233.2299039755418	0.2341366603171506	0.04326292228651554	-1.326684523481465	82.25301910632604	-26.14195776045927	-29.80023002524186	5.899560354604904	2.451982624139334	1.987972377786656	0	0.08112281233954448	-30.21816109338337	-108.4049173565496	9.793848132074926	-0.4439473045988533	4.250290820099795	0	-21.37711699760957	1.659277491615732	3.206407148933037	0	0	0	12.24169486949514	-15.13041749432574	22.31744374527815	66.77168297352931	41.46637959519796	0	6.471681847969849	16.51079635636603	-13.69202616916558	29.14571152488559	67.60663633200338	42.47817660387773	0	6.471681847969849
116.385112	41.17115884688469	24.43019249533526	-226.8012648289375	0.2341366603171506	0.04326292228651554	-1.326684523481465	129.2656845298554	-43.01043284243325	-31.68290797060457	5.899560354604904	2.451982624139334	1.987972377786656	0	3.668184151262583	-22.50710658535914	-102.5533816765432	9.793848132074926	-0.4439473045988533	4.250290820099795	0	-21.37711699760957	1.659277491615732	3.206407148933037	0	0	0	27.99008862603121	-15.07785080218456	14.60929536310457	76.05711157486512	44.05628855403403	0	6.404806990387585	31.78456393962842	-14.21902013284885	20.86038066131506	76.9278708843382	44.15449429865738	0	6.404806990387585
116.6379654	41.3847156848805	23.49157626240646	-225.838821209927	0.2341366603171506	0.04326292228651554	-1.326684523481465	123.6931235320077	-30.79378411039069	-59.44427985144625	5.899560354604904	2.451982624139334	1.987972377786656	0	5.602663997869506	-21.80194208690357	-99.75257238511784	9.793848132074926	-0.4439473045988533	4.250290820099795	0	-21.37711699760957	1.659277491615732	3.206407148933037	0	0	0	12.24814475848324	-15.13150529713051	23.0132720850722	67.65903209547878	40.66117892393232	0	6.309648477970434	16.5867991488397	-13.68108996169838	30.20716424400551	68.62963736644994	41.94722383279711	0	6.309648477970434
116.9009468	42.04099267791975	25.07125511821052	-228.9727406931826	0.2341366603171506	0.04326292228651554	-1.326684523481465	115.337908152434	-24.81714024705474	-68.9464598285593	5.899560354604904	2.451982624139334	1.987972377786656	0	3.77767217173804	-23.46910978458763	-102.0880310063571	9.793848132074926	-0.4439473045988533	4.250290820099795	0	-21.37711699760957	1.659277491615732	3.206407148933037	0	0	0	68.39342275898086	-14.98680753057148	-3.085432719586707	74.82622276667757	44.83931717262688	0	5.111921223498175	69.33426707291312	-15.13229661260656	-3.85494630217528	74.6765909596752	44.91083686121539	0	5.111921223498175
